<svg width="330.23999" height="341.12" xmlns:xlink="http://www.w3.org/1999/xlink" xmlns="http://www.w3.org/2000/svg">
  <defs>
    <linearGradient id="d">
      <stop style="stop-color:#5992a9;stop-opacity:1" offset="0"/>
      <stop style="stop-color:#2ae4b7;stop-opacity:1" offset="1"/>
    </linearGradient>
    <linearGradient id="c">
      <stop style="stop-color:#11e3b0;stop-opacity:1" offset="0"/>
      <stop style="stop-color:#5992a9;stop-opacity:1" offset="1"/>
    </linearGradient>
    <linearGradient id="b">
      <stop style="stop-color:#35e4ba;stop-opacity:1" offset="0"/>
      <stop style="stop-color:#a8c1cc;stop-opacity:1" offset="1"/>
    </linearGradient>
    <linearGradient id="a">
      <stop style="stop-color:#1fe3b4;stop-opacity:1" offset="0"/>
      <stop style="stop-color:#efefef;stop-opacity:1" offset="1"/>
    </linearGradient>
    <linearGradient xlink:href="#a" id="f" x1="55.625973" y1="110.53895" x2="105.875" y2="172.29099" gradientUnits="userSpaceOnUse"/>
    <linearGradient xlink:href="#b" id="g" x1="79.5" y1="49.724525" x2="124.93116" y2="111.59649" gradientUnits="userSpaceOnUse"/>
    <linearGradient xlink:href="#c" id="e" x1="67.375" y1="103.13098" x2="128.93437" y2="101.02145" gradientUnits="userSpaceOnUse"/>
    <linearGradient xlink:href="#d" id="h" x1="198.59415" y1="111.59649" x2="215.23438" y2="81.984375" gradientUnits="userSpaceOnUse"/>
    <clipPath clipPathUnits="userSpaceOnUse" id="i">
      <path style="display:inline;fill:#09e7af;fill-opacity:1;stroke:none" d="m148.03125 211.40625-1.17401 2.0958-.0442.97228 1.19324.92807 1.14905 4.37523 6.36396 2.60745 10.03207.88389 1.591-.70711 11.55087-6.44013 11.98854-6.80334 8.39548-4.56166 6.13879-3.56256 5.1902-3.10042 6.4375-7.4375 2.69198-6.02613 4.09303-1.64955L224.5 182.5l1.125-1.625v-1.5l-5.875-2.4375-6.80815-.29959-8.23865 6.08084L202.3125 184l-14.11023 8.37168-8.96797 3.29545-5.7343 6.30162L169.3125 205l-4.6875 4-6.6875 3.25-3.5625.875z"/>
    </clipPath>
  </defs>
  <g style="display:inline">
    <path style="fill:url(#e);stroke:none" d="M67.375 89.625h5c3.181734-1.002102 5.984898-2.761344 8.375-5.346711L110.53125 78.25c6.26464-.563075 8.14302.262836 11.09112.75 0 0 18.26486 4.556578 19.00263 5.278289.73777.721711 22.70332 13.44849 22.70332 13.44849l-.39087 18.179541-16.66524 12.29493L79.5 100.5l-3-1.421875L71.125 99s.563195-1.268894 1.029029-1.766114c.561681-.599525 2.044194-1.376777 2.044194-1.376777-1.626056-.223442-3.294927-1.855584-5.274048-3.491285z"/>
    <path style="fill:#11e3b0;fill-opacity:1;stroke:none" d="M48.25 154.86141 64 152.25l9.75 6.25 4 27.18267-10.5-9.04476-9.5-6.07791h6L56 158Z"/>
    <path style="display:inline;fill:url(#f);fill-rule:nonzero;stroke:none" d="M148.00628 215.4024c-14.88074 8.1079-30.24376 6.47786-45.82935.35356-11.789525-3.57813-20.448128-11.33082-25.23943-24.23991l-10.75-54.14998L56.25 129.5l-9.25.44091-13.25 3.23248 6.210786-9.20112c4.585395-6.42877 11.753647-7.40226 17.289214-8.60508l5.1875.32192-6.375-1.53012-6.0625.3125c5.709824-4.51264 12.031657-8.06355 20.0625-8.92887L83.5 109l22.375 4.34279 22.94127 28.2948 14.06349 23.73701z"/>
    <path style="fill:url(#g);stroke:none" d="m83.5 109-4-8.5 1.25-16.221711L86.9375 61.5l15.94508-11.775473L97.375 59.0625l.125 18.625 2.5625-4.815358 3.99201-5.128584 3.32049-2.347827-2.5 6.666769-1 4.803993 2.9375 6.821007c3.45377 5.56853 7.76336 7.713785 12.02563 10.048343l12.70606 9.168897 4.24436 4.22026 4.4302 9.8125-11.88613 26.06968-4.05345-1.90726-18.40417-27.75713z"/>
    <path style="fill:url(#h);fill-opacity:1;stroke:none" d="m190.71875 90.53125 9.59375-6.252961 9.03125-2.465789 6.875-.59375L214.25 82.75l-2.3528 1.96875 5.85713-2.398017 6.71967-1.614927 6.18057.172335-5.3099 3.09348-4.0195 3.520685-4.69895 9.469098-4.41652 8.940706.1875 23.28539-22.89591 15.70495-22.06812-26.92879L168.75 104.1875z"/>
  </g>
  <g style="display:inline">
    <path style="display:inline;fill:#efefef;fill-opacity:1;stroke:none" d="M225.625 212.75 224.5 182.5l9.69724-1.72461-1.50974 31.09961Z"/>
    <path style="display:inline;fill:#111;fill-opacity:1;stroke:none" d="M208.02197 213.36947 225.625 212.75 224.5 182.5l-3.48494 1.92229-1.54679.44194-2.62452 5.79202-6.4375 7.4375-8.70404 5.19945z"/>
    <path style="display:inline;fill:#3d38e2;fill-opacity:1;stroke:none" d="m245.0125 208.55231-.3875 4.81716 1.1875 6.75553-5 16.5625-2.3125 1.375 4 19.3125 6.8125-2.5625 3.375-.5L252.375 248l.8125-3.875-.9375-3.5 19.14642-47.05452-20.02142 9.24202z"/>
    <path style="display:inline;fill:#7b5dff;fill-opacity:1;stroke:none" d="m232.6875 211.875 1.50974-31.09961 4.00936-.66203 16.26345-.28727 8.52948 3.97748 2.96101-2.51907 1.83406.13258 3.60182 12.1534-10.80547 8.97142-3.8449-.28726-11.73355 6.29767-8.26431 2.96101z"/>
    <path style="display:inline;fill:#292929;fill-opacity:1" d="M216.47457 213.07201c-2.05063-12.9344 3.31795-21.34602 6.42025-29.79566.89016-.42762-.0619-.86416 3.02705-1.04198L225.625 212.75Z"/>
    <path style="display:inline;fill:#171717;fill-opacity:1" d="M214.67437 213.13536c-2.23368-10.64756.88436-19.80089 4.72054-28.64391l3.57347-1.25266c-3.01732 9.88925-7.68615 20.03877-4.69361 29.76987z"/>
    <path style="fill:#efefef;fill-opacity:1;stroke:none" d="m232.01941 289.07409 5.43589-4.15425 9.59013-5.43589 6.8501 12.33018-11.26952 7.24784-4.64038-5.48007z"/>
    <path style="fill:#1f1f1f;fill-opacity:1;stroke:none" d="m201.70221 203.2932 12.63953 20.15254 14.25201 19.7106 8.4638 17.76606 5.89992 11.13693 4.08796 7.42462-9.59013 5.43589-5.43589 4.15425-14.84924-11.53468-.44194-9.63433-9.63433-12.81631-39.95153-32.52691 15.64473-8.92722zM240.68147 306.61918l1.94454-7.55721 11.26952-7.24784 3.0494 2.34229 6.0104 10.25305 1.59099.79549-10.65079 9.28078z"/>
    <path style="display:inline;fill:#171717;fill-opacity:1" d="M185.35886 237.39298c.6209-8.96169.92274-16.32646 22.66311-24.02351l-6.31976-10.07627-34.55984 19.26866z"/>
    <path style="display:inline;fill:#efefef;fill-opacity:1" d="m262.26025 307.19698 2.28607-1.99202 7.53511 4.28684-2.32019 1.94455z"/>
    <path style="display:inline;fill:#e5e5e5;fill-opacity:1" d="m259.22092 309.84535 3.54251-3.08683 6.99781 4.67783-3.8007 3.44714z"/>
    <path style="fill:#cfcfcf;fill-opacity:1" d="m260.19176 308.99939 7.06747 4.70622-5.49714 4.93439-7.86656-4.15426zM242.5 257.375l9.125 6.5 3.32321-3.09375-4.76704-6.09744-.86867.12869z"/>
    <path style="fill:#e5e5e5;fill-opacity:1" d="m254.94821 260.78125 1.20804-1-4.17659-5.36388-1.79849.26644z"/>
    <path style="fill:#efefef;fill-opacity:1" d="m256.15625 259.78125.125-.70498-3.59375-4.76377-.70784.10487z"/>
    <path style="fill:#7b5dff;fill-opacity:1;fill-rule:nonzero;stroke:none" d="m228.1963 286.10435 16.80515-10.33271 2.04398 3.71231-15.02602 9.59014zM222.88347 281.97742l18.46994-12.94597 1.14659 1.92303-17.90521 12.35227zM178.69323 216.12173c2.76951-4.78822 6.66134-5.40863 10.38778-6.28472l-1.84037 25.77285c-1.06706 5.78554-1.96848 9.71679-3.86883 12.00251l-10.21904.84727 1.94455-2.276 2.91681-10.71708z"/>
    <path style="fill:#3d38e2;fill-opacity:1;fill-rule:nonzero;stroke:none" d="m169.7126 224.65444 6.53801 5.32298-1.06491 5.7543s.3143 2.17453.32992 2.26828c.0156.0937.4326 1.25.4326 1.25l.77553.95773-1.62643 5.97591-1.94455 2.276c-2.85386-1.0491-4.26256-3.57547-4.46527-7.33464l-.25-7.9375z"/>
    <path style="fill:#7b5dff;fill-opacity:1;fill-rule:nonzero;stroke:none;stroke-width:.7;stroke-linecap:round;stroke-linejoin:round;stroke-dasharray:none;stroke-opacity:1;paint-order:stroke fill markers" d="m229.34862 181.63769-3.42675.59668L225.625 212.75l3.53125-.4375z"/>
  </g>
  <g style="display:inline">
    <path style="display:inline;fill:#09e7af;fill-opacity:1;stroke:none" d="m148.03125 211.40625-1.17401 2.0958-.0442.97228 1.19324.92807 1.14905 4.37523 6.36396 2.60745 10.03207.88389 1.591-.70711 11.55087-6.44013 11.98854-6.80334 8.39548-4.56166 6.13879-3.56256 5.1902-3.10042 6.4375-7.4375 2.69198-6.02613 4.09303-1.64955L224.5 182.5l1.125-1.625v-1.5l-5.875-2.4375-6.80815-.29959-8.23865 6.08084L202.3125 184l-14.11023 8.37168-8.96797 3.29545-5.7343 6.30162L169.3125 205l-4.6875 4-6.6875 3.25-3.5625.875zM110.6569 196.89105l-4.7819.21496v6.80591l-4.40518 8.22011.70711 3.62393 3.13779 1.4584 8.52947 2.56327 4.99394 1.01646 4.46361.13258.92808-.83968.53033-4.90556 2.56326-2.43068 1.50261-.48613.57452-2.2981-.99429-2.43527-13.59375-6.96875zM244.21396 180.00725l7.33928-.0928.30936-6.36396 7.91075-4.37522 2.03152.44834.26658-3.36516-2.03293-.26516-5.17072-2.65165-1.14905.31458-7.65625 3.03125-1.46875 7.0625z"/>
    <g style="display:inline" clip-path="url(#i)">
      <path style="display:inline;mix-blend-mode:normal;fill:none;fill-opacity:1;fill-rule:nonzero;stroke:#000;stroke-width:.7;stroke-linecap:round;stroke-linejoin:round;stroke-dasharray:none;stroke-opacity:1;paint-order:markers stroke fill" d="m154.80892 222.49737-.88691-9.32265"/>
      <path style="display:inline;fill:none;fill-opacity:1;fill-rule:nonzero;stroke:#000;stroke-width:.7;stroke-linecap:round;stroke-linejoin:round;stroke-dasharray:none;stroke-opacity:1;paint-order:stroke fill markers" d="M171.78282 220.65245 169.375 219.25l-4.5-10.3125M184.73169 213.44926l.14331-3.01176-7-11.75M198.0209 206.1838l-.0834-2.6838-7.125-12.5M212.21951 197.19384l.15549-3.63134L204 181.75M219.46827 184.86423l-.28077-1.42673-7.875-5.9375"/>
    </g>
    <path style="display:inline;fill:none;fill-opacity:1;fill-rule:nonzero;stroke:#000;stroke-width:.7;stroke-linecap:round;stroke-linejoin:round;stroke-dasharray:none;stroke-opacity:1;paint-order:stroke fill markers" d="m244.44429 176.22558 2.1592.41233 3.11211 2.47978 2.93252-.35226M257.19682 172.07909l-.226-3.46972-3.98828-.82527-3.09192-2.61223"/>
    <path style="display:inline;fill:none;fill-opacity:1;fill-rule:nonzero;stroke:#000;stroke-width:.7;stroke-linecap:butt;stroke-linejoin:round;stroke-dasharray:none;stroke-opacity:1;paint-order:stroke fill markers" d="m104.82858 217.34921.0777-3.18424 5.0777-7.57528.28255-5.85708 7.57369-.89109"/>
    <path style="display:inline;fill:none;fill-opacity:1;fill-rule:nonzero;stroke:#000;stroke-width:.7;stroke-linecap:round;stroke-linejoin:round;stroke-dasharray:none;stroke-opacity:1;paint-order:stroke fill markers" d="m115.87712 220.92667 3.46193-1.98023.66644-6.45197 4.4478-3.58561-1.68188-5.39469"/>
    <path style="display:inline;fill:#ffea00;fill-opacity:1;stroke:none" d="m115.25 145.875 12.04375.074L188.5 143.5l6.61728-3L209.75 127.125l15.875 3.75v7.5l2.96875 3.625 5.53125 7.77405.125 2.10095s2.25-2.10095 3.25-2.10095 10.65827-.64905 14.05324 1.97595c3.39497 2.625 2.47801 8.21875 2.47801 8.35937 0 .14063-.3125 3.54688-.3125 3.54688l-7.65625 3.03125-1.46875 7.0625-.37979 6.25725-6.00736.10611-10.86285 1.85539L224.5 182.5l1.125-1.625v-1.5l-5.875-2.4375-6.08639 1.375-6.56971 3.125L202.3125 184l-2 1.125-15.5625 9.3125-7.0625 4.5-8.375 6.0625-4.6875 4-6.6875 3.25-3.5625.875-6.75-.625-4.5-2.125-3.875-2.9375.875-4.625s-6.0625 5.6875-6.3125 5.6875-2.75.25-2.75.25l-5.3125-2.4375-10.9375-5.75-6.4375-5.6875-2.5-13.5 4.5-2.5625 1.4375-8.6875-1.25-4.375 2.9375-2.5625-2.4375-5.125 1.6875-7.1875z"/>
    <path style="display:inline;fill:#7b5dff;fill-opacity:1;stroke:none" d="m116.76101 147.78532 8.17015-.44194 14.63404.35355 45.69678-1.14905 4.23931-1.65543s3.9808-2.18946 4.37855-2.27785c.39775-.0884 11.45847-9.98991 11.45847-9.98991s4.00949-3.66609 8.38471-2.42865c4.37523 1.23743 6.8943 2.2539 6.8943 2.2539l-3.44715 7.91076-1.19324 11.71145-4.64039 7.68979L195.6918 170.56l-1.23744 7.45413-2.2097.61872-2.47488 1.14905-9.54594-10.07627L147.375 166.25l-4.49524-.8754-13.30244-6.0988-6.27558-4.41942-4.86135-4.06586-1.98874-2.16551z"/>
    <path style="fill:#3d38e2;fill-opacity:1;stroke:none" d="m121.62237 149.77405 5.21491-.34199 62.66401-4.53961 4.37855-2.27785 8.58492-7.42738 9.93244 2.30085-8.7722 22.32443-7.49126 5.47371-36.97755-2.09339L147.375 166.25l-4.34375-1.65625-3.65373-2.06781-14.44636-9.88655z"/>
    <path style="display:inline;fill:#d9b726;fill-opacity:1;stroke:none" d="M225.41602 138.07422c-.0554-.0592-.0197-.00059.20898.30078.94362 1.11085-.0427-.12316-.20898-.30078zm.20898.30078-.76562 1.85547-3.2754 9.54358-1.49609 7.46814L215.5 163.3125l-14.33594 6.8125-6.59663 7.35663 7.13569-6.29413 15.55469-6.30273-1.24609 3.36523 3.72266 1.875.0156 6.8125 5.875 2.4375v1.5l-1.125 1.625 5.6875-1.0625 8.01953-1.32422 6.00781-.10547.37891-6.25781 1.46875-7.0625 7.65625-3.03125c.80778-5.04784.6082-9.03821-1.37305-11.1582l-1.55468.72265-5.82227 4.86133-3.53516 9.14844-3.05078 11.88867-8.19531-1.90039-5.6875-6.6582.375-9.09571 7.52791-3.46096 2.21803-2.86881-.37094-3.26007-.78493 1.40942-8.51153 2.34929-3.51602 7.70793.63039-5.73023.68964-7.83736zm-114.5625 19.6875 2.4375 5.125-2.9375 2.5625 19.36961 7.02665 14.39462 6.7184 2.48577 9.12604 2.47461 4.6836-.91211 3.58593-8.25 5.92188-.875 4.625 3.875 2.9375 4.5 2.125 6.75.625 3.5625-.875 6.6875-3.25 6.78125-5.51562-2.14258-1.8711-7.77734-1.66016-7.60156 4.4004-1.50391-1.06055s.0884-6.40234 0-6.40235c-.0884 0 1.41406-13.39648 1.41406-13.39648l-5.43554-3.42773 26.26562-2.0586 14.93534 1.59506-11.72245-3.26693L150 175l-18.125-6.08984-13.25781-7.24805z"/>
    <path style="display:inline;fill:#00e7ad;fill-opacity:1;fill-rule:nonzero;stroke:none" d="m141.1875 208.90625 11.58121-16.05986L165.625 182.75l5.75 4.91113c16.95547-4.84464 24.21366-9.92628 32.875-14.97363l.3779-2.68511 8.01899-3.24928 4.61092-1.86834-.62304 1.68261-9.84766 2.74956v3.89829l-35.75614 17.21446-5.91097-4.74702-10.41327 8.92435L143.125 210.375"/>
    <path style="display:inline;fill:#00e7ad;fill-opacity:1;fill-rule:nonzero;stroke:none" d="m147.625 212.5 7.9448-11.50287 11.57257-8.93946 6.0104 3.72252 38.09538-21.2132-1.23744-3.35876 7.86234-2.02073 1.86133.9375-6.54169 2.76261 1.32583 2.70168-41.36575 23.28449-5.3033-3.82926-10.16392 7.1088L151 212.8125Z"/>
    <g style="display:inline">
      <path style="display:inline;fill:#282828;fill-opacity:1;stroke:none" d="m184.7841 182.88231.45706-1.44964 6.5 10.625-.45706 1.44964zm0 0 12.44624-4.875 5.56847 9.125-11.51471 6.375z"/>
      <path style="display:inline;fill:#282828;fill-opacity:1;stroke:none" d="m191.2841 193.50731.45706-1.44964 11.51471-6.375-.45706 1.44964z"/>
      <path style="display:inline;fill:#696969;fill-opacity:1;stroke:none" d="m185.24116 181.43267 12.02883-5.09597 5.98588 9.34597-11.51471 6.375z"/>
      <path style="display:inline;fill:#adadad;fill-opacity:1;stroke:none" d="m195.83789 180.09961-2.91211 1.23242.29883 1.12891-.9043.38281 3.22071 12.20117 10.64062-4.50781-1.01367-.82617 1.61914-.68555zm1.78906 2.1875 6.08008 4.87305-2.76953 1.00195-4.32617-5.42773zm-1.80468.87305 4.1875 5.51562-3.39844 1.31641-2.125-6.29688z"/>
      <path style="fill:#696969;fill-opacity:1;stroke:none" d="m206.18214 190.53677.60522-1.51063-10.64036 4.50775-.60522 1.51063z"/>
      <path style="display:inline;fill:#282828;fill-opacity:1;stroke:none" d="m192.32014 182.84282.60522-1.51063 3.22164 12.2017-.60522 1.51063z"/>
      <path style="fill:#282828;fill-opacity:1;stroke:none" d="m197.62695 182.28711-1.01562.44727.48242.60351.60156-.26367 4.62696 4.58594 1.38476-.5zm-1.80468.87305-1.33594.53515.27148.80078.89649-.42382 3.38867 4.95312.9668-.34961z"/>
    </g>
    <path style="fill:#f2c31d;fill-opacity:1;stroke:none" d="m252.3457 152.49805-1.55468.72265-5.82227 4.86133-3.53516 9.14844-1.52539 5.94336-1.7832 2.41601-7-1.08984-4.0625-3.93945.0937-7.2793 5.24609-5.27734-7.52734 3.46093-.375 9.09571 5.6875 6.6582 8.19531 1.90039 5.91211-.41797.29883-4.95117 1.46875-7.0625 7.65625-3.03125c.76072-3.90106.86758-8.76994-1.37305-11.1582zM113.5 163.1875l-2.9375 2.5625 1.25 4.375-.71875 4.34375 23.78711 6.81641 11.93164 7.33593-2.48633-9.12695-14.39453-6.7168z"/>
    <path style="fill:#00e7ad;fill-opacity:1;fill-rule:nonzero;stroke:none" d="m137.1289 176.13574 2.58189 1.20491-2.92954 4.1281 1.81168 14.93016L125.75 206.3125l-2.32796-1.22384 11.90052-10.04414-1.32583-14.36769zM222.06789 157.61141l1.381 1.32081 1.36603 3.98992-.12744 3.09055 9.25002 7.23731 10.65623.5-.18988 3.12862-11.34135-.24071-10.625-8.32541.32003-4.97086-1.00483-2.86512zM106.78125 212.0625l-1.875 3.69346"/>
  </g>
  <g style="display:inline">
    <path style="display:inline;fill:#efefef;fill-opacity:1;stroke:none" d="m141.5625 117 9.31641 11.0625-4.44141 12.875-7.05998 21.58844-14.44636-9.88655 7.77022-22.00359-4.31406-1.30179 4.8946-4.50555-1.89093-.53975 3.16364-3.11747-2.2105-9.57475z"/>
    <path style="fill:#efefef;fill-opacity:1;stroke:none" d="m177.85245 117.55858 3.60883.50553 11.43582-3.86637-2.58172 6.0988 6.3045 1.28163-3.72278 2.47488 19.5001 13.43502-4.86136 12.28598-21.67657-14.86238-8.02191-12.14026zM94.354561 223.84349l.220971-6.54074 7.601398-1.54679 3.13779 1.4584 4.37522 1.28163 4.15425 1.28164 4.99394 1.01646-.35355 3.93328-8.39689 4.15426-3.27037-1.06066-.83969-2.47488-1.45841 1.5468-5.701048-1.94455.132583-1.63518-1.502602 1.45841zM251.55324 179.91448l.30936-6.36396 7.91075-4.37522 12.81631 2.82842-1.67937 3.75651-6.18719-1.5468 6.67332 3.22618-3.27037 3.44714-7.5572-3.40295 5.39169 3.8007-2.96101 2.51907-8.52948-3.97748z"/>
  </g>
  <g style="display:inline">
    <path style="display:inline;fill:#292929;fill-opacity:1;stroke:none" d="m161.12169 168.24944-7.67952-19.75702-2.56326-18.9151 3.53553-6.45235 13.55711-4.04274 13.09332 2.69063 9.5888 26.27762 5.48007 17.23573-2.65165 2.38649-1.19545 10.77518-2.7263 1.15499-9.3365-9.89724z"/>
    <path style="display:inline;fill:#171717;fill-opacity:1;stroke:none" d="m161.125 168.25-6.73418-21.03596L151.875 129.625l3-6.4375s10.18703-2.15983 14.84375-2.34375c5.7184-.22586 11.34819.929 11.34819.929l-1.33739-2.18681L168.125 118.75l-15.75 1.375-4 9 2.125 20.75 7.6484 18.09532z"/>
    <path style="display:inline;fill:#111;fill-opacity:1;stroke:none" d="m154.75 107.125-.0625 9.1875-13.125.6875s1.93782 2.0614 3.875 7.9375c1.875 5.6875 1.78276 13.48121 1 16-1.00031 3.21884-4.16254 12.51609-4.00029 12.23234L147.375 166.25l11 1.75-6.8125-20.5-2.125-18.1875 3.625-7.875S160.38058 119.85389 166 119.5c6.82004-.4295 13.75.125 13.75.125s-1.5-2.5-3.25-2.5625-5.875-.3125-5.875-.3125l.3125-7.375z"/>
    <path style="fill:#0bdba7;fill-opacity:1;stroke:none" d="M154.72656 110.54297s2.08594.61328 3.77344.80078 5.71875.46875 5.71875.46875l-.15625 2.96875s2.0625.25 3.3125.125 2.34375-.40625 2.34375-.40625l.10475-2.61931 1.01172-.11444-.14264 3.5046s-2.09888.76047-3.28638.85422c-1.1875.0937-4.46875-.21875-4.46875-.21875l.0937-2.9375s-4.0625-.21875-5.59375-.46875-2.71875-.80078-2.71875-.80078z"/>
    <path style="fill:#0bdba7;fill-opacity:1;stroke:none" d="M154.69141 115.36719s1.07971.85962 3.12109 1.35156c2.04138.49194 7.02111.8517 9.17873.59088 2.15762-.26082 3.66502-1.15338 3.66502-1.15338v.59375s-1.1662.98836-3.22308 1.21366c-2.05688.2253-7.4257.066-9.49345-.42169-2.06774-.48768-3.24831-1.22947-3.24831-1.22947z"/>
  </g>
  <g style="display:inline">
    <path style="display:inline;fill:#c6d0d0;fill-opacity:1;stroke:none" d="m189.62515 97.677078 2.94733-2.27069-2.925.22104 5.5374-7.535476-2.65706.401892 3.12595-4.762421-8.708 3.195042-5.31412 10.228153z"/>
    <path style="display:inline;fill:#efefef;fill-opacity:1;stroke:none" d="m131.04148 95.442169 7.12414-2.940071s-10.12862-4.120823-9.5907-4.097208c.53792.02362 4.68383-1.050869 4.68383-1.050869l-7.28158-15.680378 6.07455-1.227981 7.1635-.09446-.93152-4.687583 3.25376 2.633076-1.87616-12.834768 8.35743 9.906505 18.21069-17.493127 25.40018-6.304262 8.31806-3.341526-3.52927 9.280706-15.77022 17.782116 16.45246-10.130847 18.56476-2.396926-6.00895 8.595871-13.53981 13.944674 2.16479.826525-5.82527 3.624907 3.85728 1.782935-4.14592.507723-.13571 6.902476s-2.78143.897371-2.97823 1.416901c-.1968.519531-1.15826 3.301222-1.15826 3.301222l4.99311 8.53754-11.0902 9.39115-33.78394-5.67942s-7.66207 2.55043-7.32095 1.86559c.34112-.68484 3.68672-4.73481 3.68672-4.73481l-2.61088.30699 1.40384-2.0427-3.89664-.64941z"/>
    <g style="display:inline">
      <path style="display:inline;fill:#5992a9;fill-opacity:1;stroke:none" d="m169.4791 64.479062 6.81011-9.203328 19.02364-10.067397-15.20552 20.03432-8.44006 1.828609 3.05896-3.074474zM187.56496 73.139836l11.65533-11.433829 12.83872-5.184408-16.81315 18.748265z"/>
      <path style="display:inline;fill:#ffea07;fill-opacity:1;stroke:none" d="M171.11328 53.6875c-.12005.0019-.25108.08846-.37305.263672-1.47903 2.124704-2.30291 3.716563-4.74414 6.623047-.3586.426952-.2116.851713.33594.957031l6.43164 1.238281c.44799.08531.83292-.323605.72071-.765625l-2.01368-7.914062c-.0678-.266291-.20306-.404778-.35742-.402344zm.0898 2.166016c.10047-.0016.18831.09061.23243.269531l1.31054 5.318359c.0723.296546-.1777.570473-.46875.513672l-3.843-.752738c-.35637-.07076-.79465-.435-.56125-.721871 1.58887-1.952879 2.12526-3.021621 3.08789-4.449219.0794-.117729.16405-.176462.24218-.177734z"/>
    </g>
    <g style="display:inline">
      <circle style="fill:#7b5dff;fill-opacity:1;stroke:none" cx="164.6875" cy="93" r="1.812"/>
      <circle style="fill:#7b5dff;fill-opacity:1;stroke:none" cy="96.526779" cx="163.32832" r="1.2"/>
      <path style="display:inline;fill:#00e7ad;fill-opacity:1;stroke:none" d="m187.96875 93.480469.96875-3.792969 4.32813-2.34375-.70313 1.46875-3.6875 3.4375ZM181.99161 93.735843l-3.75651-4.728777-10.65079-2.386485-9.58034-9.593277-2.97081 2.698985-13.67039-12.604147.16912 1.178538 13.14772 13.060794 3.39223-3.143608 10.83829 11.098559 9.54594 2.209709z"/>
      <rect style="display:inline;fill:#7b5dff;fill-opacity:1;stroke:none;stroke-width:.90934" width="4.0871272" height="10.009207" x="167.8105" y="68.381752" ry="2.413985" transform="matrix(.9853 -.17088 .1478 .98902 0 0)"/>
      <rect style="display:inline;fill:#7b5dff;fill-opacity:1;stroke:none;stroke-width:.90934" width="4.0871272" height="10.009207" x="172.99753" y="68.266846" ry="2.413985" transform="matrix(.9853 -.17088 .1478 .98902 0 0)"/>
      <rect style="display:inline;fill:#7b5dff;fill-opacity:1;stroke:none;stroke-width:.486462" width="2.3504393" height="4.9809632" x="85.640427" y="203.30754" ry="1.2012911" transform="matrix(.59113 -.80658 .75371 .6572 0 0)"/>
      <rect style="display:inline;fill:#ffea00;fill-opacity:1;stroke:none;stroke-width:.486462" width="2.3504393" height="4.9809632" x="81.890007" y="202.67218" ry="1.2012911" transform="matrix(.59113 -.80658 .75371 .6572 0 0)"/>
    </g>
    <path style="display:inline;fill:#111;fill-opacity:1;stroke:none" d="m164.00458 84.278289 4.02167 5.92202 9.19239 1.723572 5.12652 2.077127-4.99394-4.286835-9.50175-1.988738z"/>
    <path style="display:inline;fill:#161616;fill-opacity:1;stroke:none" d="m181.68225 105.29262 1.58241 2.21898 4.10569-.62799 1.1178-.95018-5.14862.75131zM189.59565 105.0221l-1.862-3.04544 5.16345.22888z"/>
    <path style="display:inline;fill:#111;fill-opacity:1;stroke:none" d="m187.95782 93.514872 1.32583-3.314563 4.68458-2.519068-2.01083 3.380854-3.33667 1.74567z"/>
    <path style="fill:#8aacba;fill-opacity:1;fill-rule:nonzero;stroke:none" d="m174.79164 57.299577 1.49757-2.023843 6.78787-3.592172c3.94794-.610852 4.7019 1.117327 4.63301 3.541935l-4.71233 6.208817c-.98041-2.980947-2.86673-4.807874-8.32445-3.974812z"/>
    <path style="fill:#a8c1cc;fill-opacity:1;fill-rule:nonzero;stroke:none" d="M187.71009 55.225497c-.88525-1.512897-2.26146-2.778299-4.63301-3.541935l12.23577-6.475225z"/>
    <path style="fill:#8aacba;fill-opacity:1;fill-rule:nonzero;stroke:none" d="m193.39262 67.422921 5.1229-5.025542c3.94287-.323064 5.82076.719563 6.1035 2.829906l-4.80704 5.12984c-.50814-2.08759-2.97251-2.844936-6.41936-2.934204z"/>
    <path style="fill:#a8c1cc;fill-opacity:1;fill-rule:nonzero;stroke:none" d="m198.51552 62.397379.70477-.691372 12.83872-5.184408-7.43999 8.705686c-.75679-1.927939-2.71603-2.769644-6.1035-2.829906z"/>
    <path style="display:inline;fill:#0bdba7;fill-opacity:1;fill-rule:nonzero;stroke:none" d="m146.49877 163.92887 22.03571-8.45377-1.93095-6.1711 21.05048-6.66571 1.9169 5.93198 1.08276-.51979.43293 1.33776-1.84715.93828-1.94867-6.06151-18.66818 5.89114 1.91761 6.33996-23.56928 8.68352"/>
    <rect style="fill:#0bdba7;fill-opacity:1;fill-rule:nonzero;stroke:none;stroke-width:1.56465" width="3.0617685" height="7.8366508" x="227.97362" y="21.859533" ry="1.70068" transform="matrix(.81213 .58348 -.42395 .90569 0 0)"/>
    <rect style="fill:#0bdba7;fill-opacity:1;fill-rule:nonzero;stroke:none;stroke-width:1.56465" width="3.0617685" height="7.8366508" x="232.23967" y="23.672815" ry="1.70068" transform="matrix(.81213 .58348 -.42395 .90569 0 0)"/>
    <rect style="fill:#0bdba7;fill-opacity:1;fill-rule:nonzero;stroke:none;stroke-width:.921374" width="2.728303" height="5.822649" x="-59.660728" y="231.92648" ry="1.3640472" transform="matrix(.41576 -.90948 .90585 .4236 0 0)"/>
    <rect style="fill:#0bdba7;fill-opacity:1;fill-rule:nonzero;stroke:none;stroke-width:.921374" width="2.728303" height="5.822649" x="-63.345097" y="235.22749" ry="1.3640472" transform="matrix(.41576 -.90948 .90585 .4236 0 0)"/>
    <path style="fill:#efefef;fill-opacity:1;fill-rule:nonzero;stroke:none" d="M164.01563 127.8427c-1.16493-.20197-1.74023 1.17787-1.11591 1.73462l2.74004 1.85615-2.07712 2.87262c-.75656 1.45332 1.19826 2.05588 1.55736 1.28164l1.62416-2.32935.68901.9486-2.99345 6.51218c-.3051 1.54571 1.61657 1.58073 1.86341 1.03744l2.23135-4.3816.7734 6.125c.0887.73904-.11287 1.01509-.5152.97075l-2.02326-.10126c-.54582-.008-1.30839 1.10156-.29377 1.61268 1.15458.31987 2.44641.29884 3.76785.30538.94946-.0688 1.24877-1.12503 1.21301-2.10559-.31117-3.73948-.29772-9.03941-3.2535-12.83687l1.67937-2.78423c.36373-1.563-1.08493-2.09133-1.90035-1.19324l-1.20428 2.08817zM178.8237 124.26413c1.38461-.66891 2.23894 1.73659.9263 2.13121l-6.52927 3.81119c1.6352 5.34003 1.97596 9.87548.94534 15.24603-.51194 1.02859-2.23816.47915-2.11815-.56011 1.10398-3.98175.21399-9.32094-1.68073-15.6765-.35381-1.36599.86256-1.93984 1.69413-1.4169l.25176.4022z"/>
    <path style="fill:#efefef;fill-opacity:1;fill-rule:nonzero;stroke:none" d="M182.6101 141.26663c.65753.84254-.95016 2.16006-1.59785.66073l-.32816-.61001-3.68329 2.64276c-1.46645.66168-2.79716-.86683-1.16847-2.16294l1.16534-.55259-2.27398-10.4499c-.31496-1.03642 1.58322-2.03548 2.21846-.69953l2.08845 10.17716.89127-.56694-.59643-.9084c-.37889-.70352.42456-1.20513.86558-.62405z"/>
    <path style="fill:#efefef;fill-opacity:1;fill-rule:nonzero;stroke:none" d="M179.38415 128.20125c-.36388-.75893-2.02125-.60193-1.54679.84574 2.2812 8.43777 3.78794 10.04725 5.82032 12.74278 1.94776 1.93611 3.51221.12101 2.51143-.96343-2.74584-3.781-4.97125-6.81771-6.78496-12.62509z"/>
  </g>
</svg>
