<?xml version="1.0"?>
<svg xmlns="http://www.w3.org/2000/svg" id="logo" fill="currentColor" viewBox="0 0 404 84">
  <path d="M7 0v15H0V0h7Zm8 0v15H7V0h8Zm5 5v12h-1V6h-4V5h5Zm-2 2v10h-1V8h-2V7h3Zm26-7v15h-7V0h7Zm8 0v15h-8V0h8Zm5 5v12h-1V6h-4V5h5Zm-2 2v10h-1V8h-2V7h3Zm11-7v15h-7V0h7Zm8 0v15h-8V0h8Zm5 5v12h-1V6h-4V5h5Zm-2 2v10h-1V8h-2V7h3Zm12-7v15h-8V0h8Zm7 0v15h-7V0h7Zm7 0v15h-7V0h7Zm8 0v15h-8V0h8Zm7 0v15h-7V0h7Zm8 0v15h-8V0h8Zm7 0v15h-7V0h7Zm7 0v15h-7V0h7Zm5 5v12h-1V6h-4V5h5Zm-2 2v10h-1V8h-2V7h3Zm12-7v15h-7V0h7Zm7 0v15h-7V0h7Zm8 0v15h-8V0h8Zm7 0v15h-7V0h7Zm8 0v15h-8V0h8Zm7 0v15h-7V0h7Zm7 0v15h-7V0h7Zm6 5v12h-1V6h-5V5h6Zm-2 2v10h-1V8h-3V7h4Zm11-7v15h-7V0h7Zm7 0v15h-7V0h7Zm6 5v12h-1V6h-5V5h6Zm-2 2v10h-1V8h-3V7h4Zm33-7v15h-7V0h7Zm8 0v15h-8V0h8Zm5 5v12h-1V6h-4V5h5Zm-2 2v10h-1V8h-2V7h3Zm12-7v15h-8V0h8Zm7 0v15h-7V0h7Zm7 0v15h-7V0h7Zm5 5v12h-1V6h-4V5h5Zm-1 2v10h-1V8h-3V7h4Zm33-7v15h-7V0h7Zm8 0v15h-8V0h8Zm5 5v12h-1V6h-4V5h5Zm-2 2v10h-1V8h-2V7h3Zm11-7v15h-7V0h7Zm8 0v15h-8V0h8Zm7 0v15h-7V0h7Zm8 0v15h-8V0h8Zm7 0v15h-7V0h7Zm7 0v15h-7V0h7Zm8 0v15h-8V0h8Zm5 5v12h-1V6h-4V5h5Zm-2 2v10h-1V8h-2V7h3ZM7 15v15H0V15h7Zm8 0v15H7V15h8Z"/>
  <path d="M20 14v18h-1V14h1Zm-2 0v18h-1V14h1Zm19 1v15h-7V15h7Zm7 0v15h-7V15h7Zm8 5v1h-5v11-12h5Zm0 2v1h-3v9h-1V22h4Zm5-8v9h-5v-1h4v-8h1Zm-2 0v7h-3v-1h2v-6h1Zm11 1v15h-7V15h7Zm8 0v15h-8V15h8Zm5-1v18h-1V14h1Zm-2 0v18h-1V14h1Zm7 0v8h5v1h-6v-9h1Zm2 0v6h3v1h-4v-7h1Zm10 6v1h-7v-1h7Zm0 2v1h-7v-1h7Zm7-2v1h-7v-1h7Zm0 2v1h-7v-1h7Zm8-7v15h-8V15h8Zm7 0v15h-7V15h7Zm8 5v1h-5v11h-1V20h6Zm0 2v1h-3v9h-1V22h4Z"/>
  <path d="M133 20v1h-8v-1h8Zm0 2v1h-8v-1h8Zm7-2v1h-7v-1h7Zm0 2v1h-7v-1h7Zm5-8v9h-5v-1h4v-8h1Zm-2 0v7h-3v-1h2v-6h1Zm12 1v15h-7V15h7Zm7 0v15h-7V15h7Zm8 5v1h-4v11h-1V20h5Zm0 2v1h-2v9h-1V22h3Zm7-2v1h-7v-1h7Zm0 2v1h-7v-1h7Zm8-2v1h-8v-1h8Zm0 2v1h-8v-1h8Zm7-2v1h-7v-1h7Zm0 2v1h-7v-1h7Zm7-2v1h-7v-1h7Zm0 2v1h-7v-1h7Zm6-8v9h-6v-1h5v-8h1Zm-2 0v7h-4v-1h3v-6h1Zm11 1v15h-7V15h7Zm7 0v15h-7V15h7Zm6-1v18h-1V14h1Zm-2 0v18h-1V14h1Zm33 1v15h-7V15h7Zm8 0v15h-8V15h8Zm5-1v18h-1V14h1Zm-2 0v18h-1V14h1Zm12 1v15h-8V15h8Zm7 0v15h-7V15h7Zm7 0v15h-7V15h7Zm8 0v15h-8V15h8Zm5 5v12h-1V21h-4v-1h5Zm-2 2v10h-1v-9h-2v-1h3Zm26-7v15h-7V15h7Zm8 0v15h-8V15h8Zm5-1v18h-1V14h1Zm-2 0v18h-1V14h1Zm11 1v15h-7V15h7Zm8 0v15h-8V15h8Zm7 5v1h-4v11h-1V20h5Zm0 2v1h-2v9h-1V22h3Zm8-2v1h-8v-1h8Zm0 2v1h-8v-1h8Z"/>
  <path d="M384 20v1h-8v-1h8Zm0 2v1h-8v-1h8Zm7-2v1h-7v-1h7Zm0 2v1h-7v-1h7Zm8-2v1h-8v-1h8Zm0 2v1h-8v-1h8Zm5-8v9h-5v-1h4v-8h1Zm-2 0v7h-3v-1h2v-6h1ZM7 30v15H0V30h7Zm8 0v15H7V30h8Zm7 0v15h-7V30h7Zm8 0v15h-8V30h8Zm7 0v15h-7V30h7Zm7 5v1h-4v11h-1V35h5Zm0 2v1h-2v9h-1V37h3Zm5-8v9h-5v-1h4v-8h1Zm-2 0v7h-3v-1h3v-6Zm19 1v15h-7V30h7Zm8 0v15h-8V30h8Zm5-1v18h-1V29h1Zm-2 0v18h-1V29h1Zm34 1v15h-8V30h8Zm7 0v15h-7V30h7Zm5-1v18h-1V29h1Zm-2 0v18h-1V29h1Zm34 1v15h-7V30h7Zm7 0v15h-7V30h7Zm8 0v15h-8V30h8Zm7 0v15h-7V30h7Zm8 0v15h-8V30h8Zm7 0v15h-7V30h7Zm7 0v15h-7V30h7Zm6 5v12h-1V36h-5v-1h6Zm-2 2v10h-1v-9h-3v-1h4Zm11-7v15h-7V30h7Zm7 0v15h-7V30h7Zm6-1v18h-1V29h1Zm-2 0v18h-1V29h1Zm33 1v15h-7V30h7Zm8 0v15h-8V30h8Zm5-1v18h-1V29h1Zm-2 0v18h-1V29h1Zm12 1v15h-8V30h8Zm7 0v15h-7V30h7Zm7 5v1h-4v11h-1V35h5Zm0 2v1h-2v9h-1V37h3Zm8-7v15h-8V30h8Zm7 0v15h-7V30h7Zm5 5v12h-1V36h-4v-1h5Zm-2 2v10h-1v-9h-2v-1h3Zm19-7v15h-7V30h7Zm8 0v15h-8V30h8Zm5-1v18h-1V29h1Zm-2 0v18h-1V29h1Zm11 1v15h-7V30h7Zm8 0v15h-8V30h8Zm7 0v15h-7V30h7Zm8 0v15h-8V30h8Zm7 0v15h-7V30h7Zm5 5v12h-1V36h-4v-1h5Zm-2 2v10h-1v-9h-2v-1h3ZM7 45v15H0V45h7Zm8 0v15H7V45h8Zm7 5v1h-4v11h-1V50h5Zm0 2v1h-2v9h-1V52h3Zm8-2v1h-8v-1h8Zm0 2v1h-8v-1h8Zm7-7v15h-7V45h7Z"/>
  <path d="M44 45v15h-7V45h7Zm5 5v12h-1V51h-4v-1h5Zm-2 2v10-9h-3v-1h3Zm19-7v15h-7V45h7Zm8 0v15h-8V45h8Zm5-1v18h-1V44h1Zm-2 0v18h-1V44h1Zm34 1v15h-8V45h8Zm7 0v15h-7V45h7Zm5-1v18h-1V44h1Zm-2 0v18h-1V44h1Zm30 0v8h4v1h-5v-9h1Zm2 0v6h2v1h-3v-7h1Zm9 6v1h-7v-1h7Zm0 2v1h-7v-1h7Zm8-2v1h-8v-1h8Zm0 2v1h-8v-1h8Zm7-2v1h-7v-1h7Zm0 2v1h-7v-1h7Zm8-2v1h-8v-1h8Zm0 2v1h-8v-1h8Zm7-7v15h-7V45h7Zm7 0v15h-7V45h7Zm6-1v18h-1V44h1Zm-2 0v18h-1V44h1Zm11 1v15h-7V45h7Zm7 0v15h-7V45h7Zm6-1v18h-1V44h1Zm-2 0v18h-1V44h1Zm33 1v15h-7V45h7Zm8 0v15h-8V45h8Zm5-1v18h-1V44h1Zm-2 0v18h-1V44h1Zm12 1v15h-8V45h8Zm7 0v15h-7V45h7Zm5-1v18h-1V44h1Zm-2 0v18h-1V44h1Zm8 0v8h4v1h-5v-9h1Zm1 0v6h3v1h-4v-7h1Zm10 1v15h-7V45h7Zm7 0v15h-7V45h7Zm6 5v12h-1V51h-5v-1h6Zm-2 2v10h-1v-9h-3v-1h4Zm11-7v15h-7V45h7Zm8 0v15h-8V45h8Zm5-1v18h-1V44h1Zm-2 0v18h-1V44h1Zm11 1v15h-7V45h7Zm8 0v15h-8V45h8Zm7 5v1h-4v11h-1V50h5Zm0 2v1h-2v9h-1V52h3Zm8-2v1h-8v-1h8Zm0 2v1h-8v-1h8Z"/>
  <path d="M384 50v1h-8v-1h8Zm0 2v1h-8v-1h8Zm5-8v9h-5v-1h4v-8h1Zm-2 0v7h-3v-1h2v-6h1ZM7 60v15H0V60h7Zm8 0v15H7V60h8Zm5-1v18h-1V59h1Zm-2 0v18h-1V59h1Zm26 1v15h-7V60h7Zm8 0v15h-8V60h8Zm5 5v12h-1V66h-4v-1h5Zm-2 2v10h-1v-9h-2v-1h3Zm11-7v15h-7V60h7Zm8 0v15h-8V60h8Zm5-1v18h-1V59h1Zm-2 0v18h-1V59h1Zm34 1v15h-8V60h8Zm7 0v15h-7V60h7Zm5-1v18h-1V59h1Zm-2 0v18h-1V59h1Zm34 1v15h-7V60h7Zm7 0v15h-7V60h7Zm8 0v15h-8V60h8Zm7 0v15h-7V60h7Zm8 0v15h-8V60h8Zm7 0v15h-7V60h7Zm7 0v15h-7V60h7Zm6-1v18h-1V59h1Zm-2 0v18h-1V59h1Zm7 0v8h4v1h-5v-9h1Zm2 0v6h2v1h-3v-7h1Zm9 1v15h-7V60h7Zm8 0v15h-8V60h8Zm7 0v15h-7V60h7Zm8 0v15h-8V60h8Zm7 0v15h-7V60h7Zm7 0v15h-7V60h7Zm8 5v1h-4v11h-1V65h5Zm0 2v1h-2v9h-1V67h3Zm5-8v9h-5v-1h4v-8h1Zm-2 0v7h-3v-1h2v-6h1Zm12 1v15h-8V60h8Zm7 0v15h-7V60h7Zm5-1v18h-1V59h1Zm-2 0v18h-1V59h1Zm15 0v8h4v1h-5v-9h1Zm2 0v6h2v1h-3v-7h1Zm9 1v15h-7V60h7Zm8 0v15h-8V60h8Zm7 0v15h-7V60h7Zm8 0v15h-8V60h8Zm5-1v18h-1V59h1Zm-2 0v18h-1V59h1Zm11 1v15h-7V60h7Zm8 0v15h-8V60h8Zm7 0v15h-7V60h7Zm8 0v15h-8V60h8Zm7 0v15h-7V60h7Zm7 0v15h-7V60h7Zm8 0v15h-8V60h8Zm5 5v12h-1V66h-4v-1h5Zm-2 2v10h-1v-9h-2v-1h3Z"/>
  <path d="M3 74v8h4v1H2v-9h1Zm2 0v6h2v1H4v-7h1Zm10 6v1H7v-1h8Zm0 2v1H7v-1h8Zm5-8v9h-5v-1h4v-8h1Zm-2 0v7h-3v-1h2v-6h1Zm22 0v8h4v1h-5v-9h1Zm2 0v6h2v1h-3v-7h1Zm10 6v1h-8v-1h8Zm0 2v1h-8v-1h8Zm5-8v9h-5v-1h4v-8h1Zm-2 0v7h-3v-1h2v-6h1Zm7 0v8h5v1h-6v-9h1Zm2 0v6h3v1h-4v-7h1Z"/>
  <path d="M74 80v1h-8v-1h8Zm0 2v1h-8v-1h8Zm5-8v9h-5v-1h4v-8h1Zm-2 0v7h-3v-1h2v-6h1Zm30 0v8h4v1h-5v-9h1Zm2 0v6h2v1h-3v-7h1Zm9 6v1h-7v-1h7Zm0 2v1h-7v-1h7Zm5-8v9h-5v-1h4v-8h1Zm-2 0v7h-3v-1h2v-6h1Zm30 0v8h4v1h-5v-9h1Zm2 0v6h2v1h-3v-7h1Zm9 6v1h-7v-1h7Zm0 2v1h-7v-1h7Zm8-2v1h-8v-1h8Zm0 2v1h-8v-1h8Zm7-2v1h-7v-1h7Zm0 2v1h-7v-1h7Zm8-2v1h-8v-1h8Zm0 2v1h-8v-1h8Zm7-2v1h-7v-1h7Zm0 2v1h-7v-1h7Zm7-2v1h-7v-1h7Zm0 2v1h-7v-1h7Zm6-8v9h-6v-1h5v-8h1Zm-2 0v7h-4v-1h3v-6h1Zm14 0v8h5v1h-6v-9h1Zm2 0v6h3v1h-4v-7h1Z"/>
  <path d="M229 80v1h-8v-1h8Zm0 2v1h-8v-1h8Zm7-2v1h-7v-1h7Zm0 2v1h-7v-1h7Zm8-2v1h-8v-1h8Zm0 2v1h-8v-1h8Zm7-2v1h-7v-1h7Zm0 2v1h-7v-1h7Zm7-2v1h-7v-1h7Zm0 2v1h-7v-1h7Zm6-8v9h-6v-1h5v-8h1Zm-2 0v7h-4v-1h3v-6h1Zm14 0v8h5v1h-6v-9h1Zm2 0v6h3v1h-4v-7h1Z"/>
  <path d="M288 80v1h-8v-1h8Zm0 2v1h-8v-1h8Zm5-8v9h-5v-1h4v-8h1Zm-2 0v7h-3v-1h2v-6h1Zm22 0v8h5v1h-6v-9h1Zm2 0v6h3v1h-4v-7h1Z"/>
  <path d="M325 80v1h-8v-1h8Zm0 2v1h-8v-1h8Zm7-2v1h-7v-1h7Zm0 2v1h-7v-1h7Zm8-2v1h-8v-1h8Zm0 2v1h-8v-1h8Zm5-8v9h-5v-1h4v-8h1Zm-2 0v7h-3v-1h2v-6h1Zm7 0v8h4v1h-5v-9h1Zm2 0v6h2v1h-3v-7h1Zm10 6v1h-8v-1h8Zm0 2v1h-8v-1h8Zm7-2v1h-7v-1h7Zm0 2v1h-7v-1h7Zm8-2v1h-8v-1h8Zm0 2v1h-8v-1h8Z"/>
  <path d="M384 80v1h-8v-1h8Zm0 2v1h-8v-1h8Zm7-2v1h-7v-1h7Zm0 2v1h-7v-1h7Zm8-2v1h-8v-1h8Zm0 2v1h-8v-1h8Zm5-8v9h-5v-1h4v-8h1Zm-2 0v7h-3v-1h2v-6h1Z"/>
</svg>
