<?xml version="1.0" encoding="UTF-8"?>
<svg id="Layer_2" data-name="Layer 2" xmlns="http://www.w3.org/2000/svg" viewBox="0 0 434.62 158.92">
  <defs>
    <style>
      .cls-1 {
        fill: #ff9e55;
      }

      .cls-1, .cls-2 {
        stroke-width: 0px;
      }

      .cls-2 {
        fill: #e5d4b5;
      }
    </style>
  </defs>
  <g id="Layer_1-2" data-name="Layer 1">
    <g>
      <path class="cls-2" d="M193.84,16.05c.24.28-30.65-11.7-39.07,36.28,0,0-1.42,2.69-5.17,6.72-14.56,5.73-27.13,2.68-27.13,2.68-1.99-3.09-2.45-9.8-2.45-9.8l-11.02-1.22s-3.67-15.92.32-25.94c.01-.02.01-.04.01-.04,1.38-2.23,2.82-4.54,4.3-6.94,15.58-25.25,63.34-21.58,80.21-1.74Z"/>
      <path class="cls-1" d="M78.44,121.34c-7.75-9.75-12.09-19.69-14.09-25.12,34.98-3.38,57.64-12.63,71.92-21.65-1.73.14-3.47.22-5.22.22-3.92,0-7.05-.36-9.07-.69-14.15,6.81-34.36,12.94-62.86,15.2l-4.38.35,1.12,4.25c.17.65,4.36,16.22,16.66,31.79,11.22,14.21,31.51,30.98,64.72,30.98.61,0,1.3.05,1.92.04l-.21-7.41c-25.02.45-45.39-8.94-60.5-27.96Z"/>
      <path class="cls-1" d="M96.67,51.54c-.48-2.47-1.15-6.58-1.38-11.36-15.19,23.69-24.11,35.13-32.82,40.29V9.68h-7.35v73.79c-5.24,1.29-11.36,1.37-19.4,1.47-1.45.02-2.96.04-4.54.07C10.52,85.36-.3,104.93,0,123.17c.28,16.5,10,34.09,30.7,34.09.2,0,.4,0,.59,0,10.19-.16,18.11-3.41,23.57-9.64,8.86-10.14,7.81-24.57,7.61-26.68v-32.21c10.28-4.45,19.17-14.37,34.2-37.18ZM49.3,142.81c-4.03,4.58-10.12,6.97-18.12,7.1-16.1.22-23.6-13.3-23.83-26.86-.25-15.05,7.89-30.43,23.95-30.7,1.57-.03,3.07-.05,4.51-.06,7.71-.1,13.78-.18,19.31-1.29v30.13l.02.42c.01.13,1.39,13.03-5.84,21.26Z"/>
      <g>
        <path class="cls-1" d="M169.14,102.93c.04,2.69-.29,6.41-.98,11.14-.69,4.73-1.41,10.59-2.16,17.59-.56,5.31-1.18,13.86-1.85,25.64l-9.76.56c.86-5.91,2.02-14.64,3.48-26.2.79-7.48,1.18-14.38,1.18-20.7,0-2.66-.08-4.82-.22-6.51l10.32-1.51ZM173.18,86.38c0,2.17-.71,4.02-2.13,5.55-1.42,1.53-3.22,2.3-5.39,2.3-3.4,0-5.11-1.81-5.11-5.44,0-2.17.71-4,2.13-5.5,1.42-1.5,3.22-2.24,5.39-2.24,3.4,0,5.11,1.78,5.11,5.33Z"/>
        <path class="cls-1" d="M213.12,147.02l-1.4,7.46c-3.93,2.66-7.97,3.98-12.12,3.98-5.12,0-8.7-1.26-10.72-3.79-2.02-2.52-3.03-6.55-3.03-12.09,0-4.64,1.07-14.64,3.2-30.02-1.98,0-5.03.11-9.14.34l1.18-8.14c3.52.22,6.58.34,9.2.34.22-1.53,1.03-6.86,2.41-15.99l8.42-.9c-.67,3.82-1.55,9.44-2.64,16.89,3.48,0,8.45-.19,14.92-.56l-1.12,8.36c-6.17-.22-11.2-.34-15.09-.34-1.95,12.57-2.92,21.56-2.92,26.99,0,4.26.54,7.18,1.63,8.75,1.08,1.57,2.92,2.36,5.5,2.36,3.74,0,7.65-1.22,11.73-3.65Z"/>
        <path class="cls-1" d="M259.13,103.6l-2.52,8.13c-3.74-1.38-8.04-2.08-12.9-2.08-7.26,0-10.88,2.43-10.88,7.29,0,1.76.69,3.24,2.08,4.43,1.38,1.2,4.02,2.62,7.91,4.26,9.5,4.08,14.25,9.26,14.25,15.54,0,11.52-7.26,17.28-21.77,17.28-5.87,0-11.3-.5-16.27-1.51l2.58-8.25c4.41,1.65,9.24,2.47,14.47,2.47,8.42,0,12.62-2.41,12.62-7.24,0-3.37-3.37-6.53-10.1-9.48-9.58-4.19-14.36-9.37-14.36-15.54,0-5.35,1.96-9.44,5.89-12.29,3.93-2.84,8.73-4.26,14.42-4.26,6.13,0,11,.41,14.59,1.23Z"/>
        <path class="cls-1" d="M317.53,102.87c-2.62,20.8-3.93,34.6-3.93,41.4,0,3.93.3,8.15.9,12.68l-9.48,1.4c-.22-3.29-.34-7.65-.34-13.07h-.45c-4.86,9.09-11.56,13.63-20.08,13.63-9.76,0-14.64-5.55-14.64-16.66,0-2.95.42-8.96,1.26-18.01s1.26-15.8,1.26-20.25l9.71-1.12c0,1.61-.58,6.97-1.74,16.07-1.16,9.11-1.74,15.96-1.74,20.56s.79,7.42,2.38,9.12c1.59,1.7,4.09,2.55,7.49,2.55,4.08,0,7.99-2.67,11.75-8.02,3.76-5.35,5.96-11.22,6.59-17.62.9-9.13,1.35-16.31,1.35-21.54l9.71-1.12Z"/>
        <path class="cls-1" d="M376.33,118.92c0,2.96-.42,8.98-1.26,18.07-.84,9.09-1.26,15.86-1.26,20.31l-9.48.56c0-1.65.54-6.94,1.63-15.88,1.08-8.94,1.63-15.71,1.63-20.31s-.79-7.41-2.38-9.12c-1.59-1.7-4.09-2.55-7.49-2.55-4.08,0-7.99,2.66-11.75,7.99s-5.96,11.21-6.59,17.64c-.82,8.38-1.46,15.6-1.91,21.66l-9.15.56c2.62-19.37,3.93-32.46,3.93-39.27,0-3.93-.3-8.71-.9-14.36l9.48-1.4c.22,3.29.34,7.65.34,13.07h.45c4.86-9.09,11.56-13.63,20.09-13.63,9.76,0,14.64,5.55,14.64,16.66Z"/>
        <path class="cls-1" d="M434.62,114.6c0,5.05-2.34,8.88-7.01,11.5-5.95,3.37-16.08,5.18-30.41,5.44,0,6.73,1.17,11.62,3.51,14.67,2.34,3.05,6.27,4.57,11.81,4.57s11.33-1.91,17.73-5.72l-1.4,8.3c-5.05,3.63-11.3,5.44-18.74,5.44s-13.25-2.29-16.86-6.87c-3.61-4.58-5.41-10.39-5.41-17.42,0-10.36,3.02-18.45,9.06-24.26,6.04-5.82,13.01-8.72,20.9-8.72,4.79,0,8.79,1.16,12.01,3.48,3.21,2.32,4.82,5.52,4.82,9.59ZM425.7,114.82c0-1.98-.92-3.51-2.75-4.57-1.83-1.07-4.19-1.6-7.07-1.6-4.08,0-7.86,1.35-11.36,4.04-3.5,2.69-5.77,6.83-6.82,12.4,11.48-.22,19.36-1.44,23.62-3.65,2.92-1.5,4.38-3.7,4.38-6.62Z"/>
      </g>
    </g>
  </g>
</svg>